M48
; DRILL file {KiCad 9.0.5} date 2026-05-11T13:22:16-0300
; FORMAT={-:-/ absolute / metric / decimal}
; #@! TF.CreationDate,2026-05-11T13:22:16-03:00
; #@! TF.GenerationSoftware,Kicad,Pcbnew,9.0.5
; #@! TF.FileFunction,Plated,1,2,PTH
FMAT,2
METRIC
; #@! TA.AperFunction,Plated,PTH,ComponentDrill
T1C0.900
; #@! TA.AperFunction,Plated,PTH,ComponentDrill
T2C1.000
%
G90
G05
T1
X125.75Y-64.44
X125.75Y-66.98
X125.75Y-69.52
X125.75Y-72.06
X125.75Y-74.6
X125.75Y-77.14
X125.75Y-79.68
X125.75Y-82.22
X125.75Y-84.76
X125.75Y-87.3
X125.75Y-89.84
X125.75Y-92.38
X125.75Y-94.92
X125.75Y-97.46
X125.75Y-100.0
X151.0Y-64.44
X151.0Y-66.98
X151.0Y-69.52
X151.0Y-72.06
X151.0Y-77.14
X151.0Y-79.68
X151.0Y-82.22
X151.0Y-84.76
X151.0Y-87.3
X151.0Y-89.84
X151.0Y-94.92
X151.0Y-97.46
X151.0Y-100.0
T2
X157.317Y-97.106
X157.317Y-99.646
X159.857Y-97.106
X159.857Y-99.646
X162.397Y-97.106
X162.397Y-99.646
X164.938Y-97.106
X164.938Y-99.646
M30
