%TF.GenerationSoftware,KiCad,Pcbnew,9.0.5*%
%TF.CreationDate,2026-05-11T13:22:22-03:00*%
%TF.ProjectId,receptoresp,72656365-7074-46f7-9265-73702e6b6963,rev?*%
%TF.SameCoordinates,Original*%
%TF.FileFunction,Copper,L2,Bot*%
%TF.FilePolarity,Positive*%
%FSLAX46Y46*%
G04 Gerber Fmt 4.6, Leading zero omitted, Abs format (unit mm)*
G04 Created by KiCad (PCBNEW 9.0.5) date 2026-05-11 13:22:22*
%MOMM*%
%LPD*%
G01*
G04 APERTURE LIST*
%TA.AperFunction,ComponentPad*%
%ADD10R,1.500000X1.500000*%
%TD*%
%TA.AperFunction,ComponentPad*%
%ADD11C,1.500000*%
%TD*%
%TA.AperFunction,ComponentPad*%
%ADD12R,1.700000X1.700000*%
%TD*%
%TA.AperFunction,ComponentPad*%
%ADD13O,1.700000X1.700000*%
%TD*%
%TA.AperFunction,Conductor*%
%ADD14C,1.500000*%
%TD*%
G04 APERTURE END LIST*
D10*
%TO.P,E1,1,EN*%
%TO.N,unconnected-(E1-EN-Pad1)*%
X125750000Y-64440000D03*
D11*
%TO.P,E1,2,VP*%
%TO.N,unconnected-(E1-VP-Pad2)*%
X125750000Y-66980000D03*
%TO.P,E1,3,VN*%
%TO.N,unconnected-(E1-VN-Pad3)*%
X125750000Y-69520000D03*
%TO.P,E1,4,D34*%
%TO.N,unconnected-(E1-D34-Pad4)*%
X125750000Y-72060000D03*
%TO.P,E1,5,D35*%
%TO.N,unconnected-(E1-D35-Pad5)*%
X125750000Y-74600000D03*
%TO.P,E1,6,D32*%
%TO.N,unconnected-(E1-D32-Pad6)*%
X125750000Y-77140000D03*
%TO.P,E1,7,D33*%
%TO.N,unconnected-(E1-D33-Pad7)*%
X125750000Y-79680000D03*
%TO.P,E1,8,D25*%
%TO.N,unconnected-(E1-D25-Pad8)*%
X125750000Y-82220000D03*
%TO.P,E1,9,D26*%
%TO.N,unconnected-(E1-D26-Pad9)*%
X125750000Y-84760000D03*
%TO.P,E1,10,D27*%
%TO.N,unconnected-(E1-D27-Pad10)*%
X125750000Y-87300000D03*
%TO.P,E1,11,D14*%
%TO.N,unconnected-(E1-D14-Pad11)*%
X125750000Y-89840000D03*
%TO.P,E1,12,D12*%
%TO.N,unconnected-(E1-D12-Pad12)*%
X125750000Y-92380000D03*
%TO.P,E1,13,D13*%
%TO.N,unconnected-(E1-D13-Pad13)*%
X125750000Y-94920000D03*
%TO.P,E1,14,GND*%
%TO.N,Net-(NR1-GND)*%
X125750000Y-97460000D03*
%TO.P,E1,15,VIN*%
%TO.N,unconnected-(E1-VIN-Pad15)*%
X125750000Y-100000000D03*
%TO.P,E1,16,3V3*%
%TO.N,Net-(E1-3V3)*%
X151000000Y-100000000D03*
%TO.P,E1,17,GND*%
%TO.N,unconnected-(E1-GND-Pad17)*%
X151000000Y-97460000D03*
%TO.P,E1,18,D15*%
%TO.N,Net-(E1-D15)*%
X151000000Y-94920000D03*
%TO.P,E1,20,D4*%
%TO.N,unconnected-(E1-D4-Pad20)*%
X151000000Y-89840000D03*
%TO.P,E1,21,RX2*%
%TO.N,unconnected-(E1-RX2-Pad21)*%
X151000000Y-87300000D03*
%TO.P,E1,22,TX2*%
%TO.N,unconnected-(E1-TX2-Pad22)*%
X151000000Y-84760000D03*
%TO.P,E1,23,D5*%
%TO.N,Net-(E1-D5)*%
X151000000Y-82220000D03*
%TO.P,E1,24,D18*%
%TO.N,Net-(E1-D18)*%
X151000000Y-79680000D03*
%TO.P,E1,25,D19*%
%TO.N,Net-(E1-D19)*%
X151000000Y-77140000D03*
%TO.P,E1,27,RX0*%
%TO.N,unconnected-(E1-RX0-Pad27)*%
X151000000Y-72060000D03*
%TO.P,E1,28,TX0*%
%TO.N,unconnected-(E1-TX0-Pad28)*%
X151000000Y-69520000D03*
%TO.P,E1,29,D22*%
%TO.N,Net-(E1-D22)*%
X151000000Y-66980000D03*
%TO.P,E1,30,D23*%
%TO.N,Net-(E1-D23)*%
X151000000Y-64440000D03*
%TD*%
D12*
%TO.P,NR1,1,GND*%
%TO.N,Net-(NR1-GND)*%
X157317500Y-99646000D03*
D13*
%TO.P,NR1,2,VCC*%
%TO.N,Net-(E1-3V3)*%
X157317500Y-97106000D03*
%TO.P,NR1,3,CE*%
%TO.N,Net-(E1-D22)*%
X159857500Y-99646000D03*
%TO.P,NR1,4,CSN*%
%TO.N,Net-(E1-D15)*%
X159857500Y-97106000D03*
%TO.P,NR1,5,SCK*%
%TO.N,Net-(E1-D18)*%
X162397500Y-99646000D03*
%TO.P,NR1,6,MOSI*%
%TO.N,Net-(E1-D23)*%
X162397500Y-97106000D03*
%TO.P,NR1,7,MIS0*%
%TO.N,Net-(E1-D19)*%
X164937500Y-99646000D03*
%TO.P,NR1,8,IRQ*%
%TO.N,Net-(E1-D5)*%
X164937500Y-97106000D03*
%TD*%
D14*
%TO.N,Net-(E1-D18)*%
X150680000Y-79680000D02*
X151000000Y-79680000D01*
X149000000Y-78000000D02*
X150680000Y-79680000D01*
X149000000Y-76000000D02*
X149000000Y-78000000D01*
X160000000Y-74000000D02*
X151000000Y-74000000D01*
X169000000Y-83000000D02*
X160000000Y-74000000D01*
X169000000Y-99000000D02*
X169000000Y-83000000D01*
X166000000Y-102000000D02*
X169000000Y-99000000D01*
X163549419Y-102000000D02*
X166000000Y-102000000D01*
X151000000Y-74000000D02*
X149000000Y-76000000D01*
X162397500Y-100848081D02*
X163549419Y-102000000D01*
X162397500Y-99646000D02*
X162397500Y-100848081D01*
%TO.N,Net-(E1-D19)*%
X159000000Y-76000000D02*
X152140000Y-76000000D01*
X167000000Y-98000000D02*
X167000000Y-84000000D01*
X165354000Y-99646000D02*
X167000000Y-98000000D01*
X167000000Y-84000000D02*
X159000000Y-76000000D01*
X152140000Y-76000000D02*
X151000000Y-77140000D01*
X164937500Y-99646000D02*
X165354000Y-99646000D01*
%TO.N,Net-(E1-D15)*%
X158873581Y-94920000D02*
X151000000Y-94920000D01*
X159857500Y-97106000D02*
X159857500Y-95903919D01*
X159857500Y-95903919D02*
X158873581Y-94920000D01*
%TO.N,Net-(NR1-GND)*%
X157317500Y-99646000D02*
X152963500Y-104000000D01*
X126460000Y-97460000D02*
X125750000Y-97460000D01*
X152963500Y-104000000D02*
X133000000Y-104000000D01*
X133000000Y-104000000D02*
X126460000Y-97460000D01*
%TO.N,Net-(E1-3V3)*%
X157317500Y-97106000D02*
X153894000Y-97106000D01*
X153894000Y-97106000D02*
X151000000Y-100000000D01*
%TO.N,Net-(E1-D23)*%
X147000000Y-68000000D02*
X147000000Y-90000000D01*
X150560000Y-64440000D02*
X147000000Y-68000000D01*
X162397500Y-94397500D02*
X162397500Y-97106000D01*
X160000000Y-92000000D02*
X162397500Y-94397500D01*
X151000000Y-64440000D02*
X150560000Y-64440000D01*
X149000000Y-92000000D02*
X160000000Y-92000000D01*
X147000000Y-90000000D02*
X149000000Y-92000000D01*
%TO.N,Net-(E1-D5)*%
X162220000Y-82220000D02*
X164937500Y-84937500D01*
X164937500Y-84937500D02*
X164937500Y-97106000D01*
X151000000Y-82220000D02*
X162220000Y-82220000D01*
%TO.N,Net-(E1-D22)*%
X162500000Y-104000000D02*
X160000000Y-101500000D01*
X167000000Y-104000000D02*
X162500000Y-104000000D01*
X160000000Y-99788500D02*
X159857500Y-99646000D01*
X160000000Y-101500000D02*
X160000000Y-99788500D01*
X171000000Y-100000000D02*
X167000000Y-104000000D01*
X156980000Y-66980000D02*
X171000000Y-81000000D01*
X151000000Y-66980000D02*
X156980000Y-66980000D01*
X171000000Y-81000000D02*
X171000000Y-100000000D01*
%TD*%
%TA.AperFunction,NonConductor*%
G36*
X156454174Y-68249454D02*
G01*
X156534956Y-68303430D01*
X160624487Y-72392961D01*
X160678463Y-72473743D01*
X160697417Y-72569031D01*
X160678463Y-72664319D01*
X160624487Y-72745101D01*
X160543705Y-72799077D01*
X160448417Y-72818031D01*
X160371473Y-72805845D01*
X160350643Y-72799077D01*
X160292826Y-72780291D01*
X160292824Y-72780290D01*
X160292819Y-72780289D01*
X160098428Y-72749501D01*
X160098419Y-72749500D01*
X160098417Y-72749500D01*
X160098413Y-72749500D01*
X152433541Y-72749500D01*
X152338253Y-72730546D01*
X152257471Y-72676570D01*
X152203495Y-72595788D01*
X152184541Y-72500500D01*
X152196728Y-72423556D01*
X152219709Y-72352826D01*
X152219709Y-72352823D01*
X152219710Y-72352822D01*
X152250500Y-72158417D01*
X152250500Y-71961583D01*
X152219709Y-71767174D01*
X152158884Y-71579975D01*
X152069524Y-71404595D01*
X151953828Y-71245354D01*
X151814646Y-71106172D01*
X151656736Y-70991443D01*
X151590790Y-70920101D01*
X151557163Y-70828951D01*
X151560978Y-70731871D01*
X151601653Y-70643640D01*
X151656736Y-70588556D01*
X151814646Y-70473828D01*
X151953828Y-70334646D01*
X152069524Y-70175405D01*
X152158884Y-70000025D01*
X152219709Y-69812826D01*
X152250500Y-69618417D01*
X152250500Y-69421583D01*
X152219709Y-69227174D01*
X152158884Y-69039975D01*
X152069524Y-68864595D01*
X151953828Y-68705354D01*
X151904040Y-68655566D01*
X151850067Y-68574788D01*
X151831113Y-68479500D01*
X151850067Y-68384212D01*
X151904043Y-68303430D01*
X151984825Y-68249454D01*
X152080113Y-68230500D01*
X156358886Y-68230500D01*
X156454174Y-68249454D01*
G37*
%TD.AperFunction*%
%TA.AperFunction,NonConductor*%
G36*
X149694524Y-67291331D02*
G01*
X149775306Y-67345307D01*
X149829282Y-67426089D01*
X149836047Y-67444426D01*
X149841116Y-67460025D01*
X149930476Y-67635405D01*
X149930479Y-67635409D01*
X149930479Y-67635410D01*
X149982621Y-67707176D01*
X150046172Y-67794646D01*
X150185354Y-67933828D01*
X150185357Y-67933830D01*
X150343261Y-68048556D01*
X150409209Y-68119900D01*
X150442836Y-68211050D01*
X150439021Y-68308130D01*
X150398345Y-68396360D01*
X150343261Y-68451444D01*
X150185357Y-68566169D01*
X150046169Y-68705357D01*
X149930479Y-68864589D01*
X149930479Y-68864590D01*
X149841115Y-69039976D01*
X149841113Y-69039982D01*
X149780290Y-69227177D01*
X149749501Y-69421571D01*
X149749500Y-69421587D01*
X149749500Y-69618412D01*
X149749501Y-69618428D01*
X149780290Y-69812822D01*
X149780291Y-69812826D01*
X149841116Y-70000025D01*
X149930476Y-70175405D01*
X149930479Y-70175409D01*
X149930479Y-70175410D01*
X150046169Y-70334642D01*
X150046172Y-70334646D01*
X150185354Y-70473828D01*
X150185357Y-70473830D01*
X150343261Y-70588556D01*
X150409209Y-70659900D01*
X150442836Y-70751050D01*
X150439021Y-70848130D01*
X150398345Y-70936360D01*
X150343261Y-70991444D01*
X150185357Y-71106169D01*
X150046169Y-71245357D01*
X149930479Y-71404589D01*
X149930479Y-71404590D01*
X149841115Y-71579976D01*
X149841113Y-71579982D01*
X149780290Y-71767177D01*
X149749501Y-71961571D01*
X149749500Y-71961587D01*
X149749500Y-72158412D01*
X149749501Y-72158428D01*
X149780290Y-72352822D01*
X149841113Y-72540017D01*
X149841115Y-72540023D01*
X149930478Y-72715409D01*
X150051917Y-72882554D01*
X150092592Y-72970785D01*
X150096406Y-73067865D01*
X150062780Y-73159015D01*
X150026542Y-73204983D01*
X148675570Y-74555956D01*
X148594788Y-74609932D01*
X148499500Y-74628886D01*
X148404212Y-74609932D01*
X148323430Y-74555956D01*
X148269454Y-74475174D01*
X148250500Y-74379886D01*
X148250500Y-68621114D01*
X148269454Y-68525826D01*
X148323430Y-68445044D01*
X148866903Y-67901571D01*
X149423169Y-67345304D01*
X149503948Y-67291331D01*
X149599236Y-67272377D01*
X149694524Y-67291331D01*
G37*
%TD.AperFunction*%
%TA.AperFunction,NonConductor*%
G36*
X158474174Y-77269454D02*
G01*
X158554956Y-77323430D01*
X161775956Y-80544430D01*
X161829932Y-80625212D01*
X161848886Y-80720500D01*
X161829932Y-80815788D01*
X161775956Y-80896570D01*
X161695174Y-80950546D01*
X161599886Y-80969500D01*
X152080113Y-80969500D01*
X151984825Y-80950546D01*
X151904043Y-80896570D01*
X151850067Y-80815788D01*
X151831113Y-80720500D01*
X151850067Y-80625212D01*
X151904040Y-80544433D01*
X151953828Y-80494646D01*
X152069524Y-80335405D01*
X152158884Y-80160025D01*
X152219709Y-79972826D01*
X152250500Y-79778417D01*
X152250500Y-79581583D01*
X152219709Y-79387174D01*
X152158884Y-79199975D01*
X152069524Y-79024595D01*
X151953828Y-78865354D01*
X151814646Y-78726172D01*
X151814642Y-78726169D01*
X151656737Y-78611443D01*
X151590789Y-78540100D01*
X151557162Y-78448950D01*
X151560977Y-78351870D01*
X151601653Y-78263639D01*
X151656736Y-78208556D01*
X151814646Y-78093828D01*
X152288457Y-77620017D01*
X152585045Y-77323430D01*
X152665826Y-77269454D01*
X152761114Y-77250500D01*
X158378886Y-77250500D01*
X158474174Y-77269454D01*
G37*
%TD.AperFunction*%
%TA.AperFunction,NonConductor*%
G36*
X148594788Y-79390068D02*
G01*
X148675569Y-79444043D01*
X149865354Y-80633829D01*
X150024595Y-80749524D01*
X150024597Y-80749525D01*
X150175020Y-80826170D01*
X150251318Y-80886318D01*
X150298789Y-80971085D01*
X150310208Y-81067567D01*
X150283836Y-81161074D01*
X150223688Y-81237372D01*
X150208338Y-81249473D01*
X150185356Y-81266170D01*
X150046169Y-81405357D01*
X149930479Y-81564589D01*
X149930479Y-81564590D01*
X149841115Y-81739976D01*
X149841113Y-81739982D01*
X149780290Y-81927177D01*
X149749501Y-82121571D01*
X149749500Y-82121587D01*
X149749500Y-82318412D01*
X149749501Y-82318428D01*
X149780290Y-82512822D01*
X149780291Y-82512826D01*
X149841116Y-82700025D01*
X149930476Y-82875405D01*
X149930479Y-82875409D01*
X149930479Y-82875410D01*
X150046169Y-83034642D01*
X150046172Y-83034646D01*
X150185354Y-83173828D01*
X150185357Y-83173830D01*
X150343261Y-83288556D01*
X150409209Y-83359900D01*
X150442836Y-83451050D01*
X150439021Y-83548130D01*
X150398345Y-83636360D01*
X150343261Y-83691444D01*
X150185357Y-83806169D01*
X150046169Y-83945357D01*
X149930479Y-84104589D01*
X149930479Y-84104590D01*
X149841115Y-84279976D01*
X149841113Y-84279982D01*
X149780290Y-84467177D01*
X149749501Y-84661571D01*
X149749500Y-84661587D01*
X149749500Y-84858412D01*
X149749501Y-84858428D01*
X149780290Y-85052822D01*
X149780291Y-85052826D01*
X149841116Y-85240025D01*
X149930476Y-85415405D01*
X149930479Y-85415409D01*
X149930479Y-85415410D01*
X150034524Y-85558614D01*
X150046172Y-85574646D01*
X150185354Y-85713828D01*
X150185357Y-85713830D01*
X150343261Y-85828556D01*
X150409209Y-85899900D01*
X150442836Y-85991050D01*
X150439021Y-86088130D01*
X150398345Y-86176360D01*
X150343261Y-86231444D01*
X150185357Y-86346169D01*
X150046169Y-86485357D01*
X149930479Y-86644589D01*
X149930479Y-86644590D01*
X149841115Y-86819976D01*
X149841113Y-86819982D01*
X149780290Y-87007177D01*
X149749501Y-87201571D01*
X149749500Y-87201587D01*
X149749500Y-87398412D01*
X149749501Y-87398428D01*
X149780290Y-87592822D01*
X149780291Y-87592826D01*
X149841116Y-87780025D01*
X149930476Y-87955405D01*
X149930479Y-87955409D01*
X149930479Y-87955410D01*
X150046169Y-88114642D01*
X150046172Y-88114646D01*
X150185354Y-88253828D01*
X150185357Y-88253830D01*
X150343261Y-88368556D01*
X150409209Y-88439900D01*
X150442836Y-88531050D01*
X150439021Y-88628130D01*
X150398345Y-88716360D01*
X150343261Y-88771444D01*
X150185357Y-88886169D01*
X150046169Y-89025357D01*
X149930479Y-89184589D01*
X149930479Y-89184590D01*
X149841115Y-89359976D01*
X149841113Y-89359982D01*
X149780290Y-89547177D01*
X149749501Y-89741571D01*
X149749500Y-89741587D01*
X149749500Y-89938412D01*
X149749501Y-89938428D01*
X149780290Y-90132822D01*
X149841113Y-90320017D01*
X149841117Y-90320027D01*
X149875474Y-90387456D01*
X149878160Y-90396981D01*
X149883660Y-90405212D01*
X149891265Y-90443448D01*
X149901846Y-90480963D01*
X149900682Y-90490791D01*
X149902614Y-90500500D01*
X149895008Y-90538736D01*
X149890427Y-90577445D01*
X149885590Y-90586080D01*
X149883660Y-90595788D01*
X149861999Y-90628205D01*
X149842955Y-90662212D01*
X149835184Y-90668337D01*
X149829684Y-90676570D01*
X149797264Y-90698231D01*
X149766658Y-90722360D01*
X149757132Y-90725046D01*
X149748902Y-90730546D01*
X149710665Y-90738151D01*
X149673151Y-90748732D01*
X149653614Y-90749500D01*
X149621114Y-90749500D01*
X149525826Y-90730546D01*
X149445044Y-90676570D01*
X148323430Y-89554956D01*
X148269454Y-89474174D01*
X148250500Y-89378886D01*
X148250500Y-79620114D01*
X148269454Y-79524826D01*
X148323430Y-79444044D01*
X148404212Y-79390068D01*
X148499500Y-79371114D01*
X148594788Y-79390068D01*
G37*
%TD.AperFunction*%
%TA.AperFunction,NonConductor*%
G36*
X161694174Y-83489454D02*
G01*
X161774956Y-83543430D01*
X163614070Y-85382544D01*
X163668046Y-85463326D01*
X163687000Y-85558614D01*
X163687000Y-93317387D01*
X163668046Y-93412675D01*
X163614070Y-93493457D01*
X163533288Y-93547433D01*
X163438000Y-93566387D01*
X163342712Y-93547433D01*
X163261933Y-93493459D01*
X160814646Y-91046172D01*
X160655405Y-90930476D01*
X160480026Y-90841116D01*
X160480023Y-90841115D01*
X160480021Y-90841114D01*
X160292823Y-90780290D01*
X160098428Y-90749501D01*
X160098419Y-90749500D01*
X160098417Y-90749500D01*
X160098413Y-90749500D01*
X152346386Y-90749500D01*
X152251098Y-90730546D01*
X152170316Y-90676570D01*
X152116340Y-90595788D01*
X152097386Y-90500500D01*
X152116340Y-90405212D01*
X152124526Y-90387456D01*
X152158884Y-90320025D01*
X152219709Y-90132826D01*
X152250500Y-89938417D01*
X152250500Y-89741583D01*
X152219709Y-89547174D01*
X152158884Y-89359975D01*
X152069524Y-89184595D01*
X151953828Y-89025354D01*
X151814646Y-88886172D01*
X151656736Y-88771443D01*
X151590790Y-88700101D01*
X151557163Y-88608951D01*
X151560978Y-88511871D01*
X151601653Y-88423640D01*
X151656736Y-88368556D01*
X151814646Y-88253828D01*
X151953828Y-88114646D01*
X152069524Y-87955405D01*
X152158884Y-87780025D01*
X152219709Y-87592826D01*
X152250500Y-87398417D01*
X152250500Y-87201583D01*
X152219709Y-87007174D01*
X152158884Y-86819975D01*
X152069524Y-86644595D01*
X151953828Y-86485354D01*
X151814646Y-86346172D01*
X151656736Y-86231443D01*
X151590790Y-86160101D01*
X151557163Y-86068951D01*
X151560978Y-85971871D01*
X151601653Y-85883640D01*
X151656736Y-85828556D01*
X151814646Y-85713828D01*
X151953828Y-85574646D01*
X152069524Y-85415405D01*
X152158884Y-85240025D01*
X152219709Y-85052826D01*
X152250500Y-84858417D01*
X152250500Y-84661583D01*
X152219709Y-84467174D01*
X152158884Y-84279975D01*
X152069524Y-84104595D01*
X151953828Y-83945354D01*
X151904040Y-83895566D01*
X151850067Y-83814788D01*
X151831113Y-83719500D01*
X151850067Y-83624212D01*
X151904043Y-83543430D01*
X151984825Y-83489454D01*
X152080113Y-83470500D01*
X161598886Y-83470500D01*
X161694174Y-83489454D01*
G37*
%TD.AperFunction*%
%TA.AperFunction,NonConductor*%
G36*
X163725627Y-97837107D02*
G01*
X163813858Y-97877781D01*
X163868944Y-97932867D01*
X163874145Y-97940025D01*
X163907397Y-97985793D01*
X164057707Y-98136103D01*
X164110631Y-98174555D01*
X164176580Y-98245899D01*
X164210207Y-98337049D01*
X164206392Y-98434129D01*
X164165717Y-98522359D01*
X164140342Y-98552070D01*
X164126485Y-98565926D01*
X164057708Y-98615896D01*
X163907396Y-98766208D01*
X163857426Y-98834985D01*
X163843570Y-98848842D01*
X163819157Y-98865153D01*
X163797601Y-98885080D01*
X163779144Y-98891888D01*
X163762788Y-98902818D01*
X163733996Y-98908545D01*
X163706451Y-98918707D01*
X163686792Y-98917934D01*
X163667500Y-98921772D01*
X163638707Y-98916044D01*
X163609371Y-98914892D01*
X163591505Y-98906655D01*
X163572212Y-98902818D01*
X163547802Y-98886508D01*
X163521141Y-98874217D01*
X163504496Y-98857572D01*
X163491430Y-98848842D01*
X163482699Y-98835775D01*
X163466055Y-98819131D01*
X163427603Y-98766207D01*
X163277293Y-98615897D01*
X163262983Y-98605500D01*
X163224367Y-98577444D01*
X163158420Y-98506103D01*
X163124793Y-98414953D01*
X163128607Y-98317873D01*
X163169281Y-98229642D01*
X163224367Y-98174555D01*
X163277292Y-98136104D01*
X163427604Y-97985792D01*
X163466055Y-97932867D01*
X163537397Y-97866920D01*
X163628547Y-97833293D01*
X163725627Y-97837107D01*
G37*
%TD.AperFunction*%
%TA.AperFunction,NonConductor*%
G36*
X161185627Y-97837107D02*
G01*
X161273858Y-97877781D01*
X161328944Y-97932867D01*
X161334145Y-97940025D01*
X161367397Y-97985793D01*
X161517707Y-98136103D01*
X161570631Y-98174555D01*
X161636580Y-98245899D01*
X161670207Y-98337049D01*
X161666392Y-98434129D01*
X161625717Y-98522359D01*
X161600342Y-98552070D01*
X161586485Y-98565926D01*
X161517708Y-98615896D01*
X161367396Y-98766208D01*
X161317426Y-98834985D01*
X161303570Y-98848842D01*
X161279157Y-98865153D01*
X161257601Y-98885080D01*
X161239144Y-98891888D01*
X161222788Y-98902818D01*
X161193996Y-98908545D01*
X161166451Y-98918707D01*
X161146792Y-98917934D01*
X161127500Y-98921772D01*
X161098707Y-98916044D01*
X161069371Y-98914892D01*
X161051505Y-98906655D01*
X161032212Y-98902818D01*
X161007802Y-98886508D01*
X160981141Y-98874217D01*
X160964496Y-98857572D01*
X160951430Y-98848842D01*
X160942699Y-98835775D01*
X160926055Y-98819131D01*
X160887603Y-98766207D01*
X160737293Y-98615897D01*
X160722983Y-98605500D01*
X160684367Y-98577444D01*
X160618420Y-98506103D01*
X160584793Y-98414953D01*
X160588607Y-98317873D01*
X160629281Y-98229642D01*
X160684367Y-98174555D01*
X160737292Y-98136104D01*
X160887604Y-97985792D01*
X160926055Y-97932867D01*
X160997397Y-97866920D01*
X161088547Y-97833293D01*
X161185627Y-97837107D01*
G37*
%TD.AperFunction*%
%TA.AperFunction,NonConductor*%
G36*
X167005428Y-54500737D02*
G01*
X167381306Y-54517148D01*
X167402917Y-54519038D01*
X167770552Y-54567439D01*
X167791943Y-54571211D01*
X167857737Y-54585797D01*
X168153956Y-54651467D01*
X168174912Y-54657082D01*
X168234376Y-54675831D01*
X168319554Y-54722562D01*
X168380365Y-54798332D01*
X168407551Y-54891606D01*
X168396973Y-54988184D01*
X168350242Y-55073362D01*
X168274472Y-55134173D01*
X168254787Y-55143352D01*
X168113306Y-55201955D01*
X167886201Y-55333073D01*
X167886187Y-55333082D01*
X167678154Y-55492713D01*
X167492713Y-55678154D01*
X167333082Y-55886187D01*
X167333073Y-55886201D01*
X167201955Y-56113306D01*
X167201953Y-56113310D01*
X167101601Y-56355582D01*
X167033729Y-56608887D01*
X166999500Y-56868880D01*
X166999500Y-57131119D01*
X167033729Y-57391112D01*
X167101601Y-57644417D01*
X167201953Y-57886689D01*
X167201955Y-57886693D01*
X167333073Y-58113798D01*
X167333082Y-58113812D01*
X167421813Y-58229447D01*
X167492718Y-58321851D01*
X167678149Y-58507282D01*
X167678153Y-58507285D01*
X167678154Y-58507286D01*
X167886187Y-58666917D01*
X167886192Y-58666920D01*
X167886197Y-58666924D01*
X168113303Y-58798043D01*
X168355581Y-58898398D01*
X168608884Y-58966270D01*
X168868880Y-59000500D01*
X169131120Y-59000500D01*
X169391116Y-58966270D01*
X169644419Y-58898398D01*
X169886697Y-58798043D01*
X170113803Y-58666924D01*
X170321851Y-58507282D01*
X170507282Y-58321851D01*
X170666924Y-58113803D01*
X170798043Y-57886697D01*
X170856649Y-57745208D01*
X170862751Y-57736077D01*
X170865826Y-57725527D01*
X170889557Y-57695957D01*
X170910622Y-57664432D01*
X170919759Y-57658326D01*
X170926637Y-57649757D01*
X170959879Y-57631519D01*
X170991403Y-57610456D01*
X171002179Y-57608312D01*
X171011815Y-57603026D01*
X171049509Y-57598897D01*
X171086692Y-57591501D01*
X171097468Y-57593644D01*
X171108393Y-57592448D01*
X171144794Y-57603057D01*
X171181980Y-57610454D01*
X171191116Y-57616559D01*
X171201667Y-57619634D01*
X171231236Y-57643365D01*
X171262762Y-57664430D01*
X171268867Y-57673567D01*
X171277437Y-57680445D01*
X171295674Y-57713687D01*
X171316738Y-57745211D01*
X171324168Y-57765623D01*
X171342913Y-57825073D01*
X171348536Y-57846058D01*
X171428788Y-58208056D01*
X171432560Y-58229447D01*
X171480959Y-58597066D01*
X171482852Y-58618706D01*
X171499263Y-58994570D01*
X171499500Y-59005432D01*
X171499500Y-79129886D01*
X171480546Y-79225174D01*
X171426570Y-79305956D01*
X171345788Y-79359932D01*
X171250500Y-79378886D01*
X171155212Y-79359932D01*
X171074430Y-79305956D01*
X164445044Y-72676570D01*
X157794646Y-66026172D01*
X157635405Y-65910476D01*
X157460026Y-65821116D01*
X157460023Y-65821115D01*
X157460021Y-65821114D01*
X157272823Y-65760290D01*
X157078428Y-65729501D01*
X157078419Y-65729500D01*
X157078417Y-65729500D01*
X157078413Y-65729500D01*
X152080113Y-65729500D01*
X151984825Y-65710546D01*
X151904043Y-65656570D01*
X151850067Y-65575788D01*
X151831113Y-65480500D01*
X151850067Y-65385212D01*
X151904040Y-65304433D01*
X151953828Y-65254646D01*
X152069524Y-65095405D01*
X152158884Y-64920025D01*
X152219709Y-64732826D01*
X152250500Y-64538417D01*
X152250500Y-64341583D01*
X152219709Y-64147174D01*
X152158884Y-63959975D01*
X152069524Y-63784595D01*
X151953828Y-63625354D01*
X151814646Y-63486172D01*
X151761653Y-63447670D01*
X151655410Y-63370479D01*
X151655407Y-63370477D01*
X151655405Y-63370476D01*
X151480025Y-63281116D01*
X151480024Y-63281115D01*
X151480023Y-63281115D01*
X151480017Y-63281113D01*
X151329896Y-63232336D01*
X151292826Y-63220291D01*
X151292824Y-63220290D01*
X151292822Y-63220290D01*
X151098428Y-63189501D01*
X151098419Y-63189500D01*
X151098417Y-63189500D01*
X150658416Y-63189500D01*
X150461583Y-63189500D01*
X150461580Y-63189500D01*
X150461571Y-63189501D01*
X150267176Y-63220290D01*
X150206344Y-63240055D01*
X150079974Y-63281116D01*
X149979218Y-63332454D01*
X149979217Y-63332453D01*
X149904595Y-63370475D01*
X149904589Y-63370479D01*
X149745357Y-63486169D01*
X146046170Y-67185356D01*
X145930475Y-67344597D01*
X145930473Y-67344598D01*
X145840219Y-67521733D01*
X145838092Y-67529277D01*
X145780290Y-67707173D01*
X145780290Y-67707176D01*
X145749501Y-67901571D01*
X145749500Y-67901587D01*
X145749500Y-90098412D01*
X145749501Y-90098428D01*
X145780290Y-90292823D01*
X145780291Y-90292826D01*
X145841116Y-90480026D01*
X145930476Y-90655405D01*
X146046172Y-90814646D01*
X148185354Y-92953828D01*
X148344595Y-93069524D01*
X148519974Y-93158884D01*
X148707174Y-93219709D01*
X148901583Y-93250500D01*
X149098416Y-93250500D01*
X150519365Y-93250500D01*
X150614653Y-93269454D01*
X150695435Y-93323430D01*
X150749411Y-93404212D01*
X150768365Y-93499500D01*
X150749411Y-93594788D01*
X150695435Y-93675570D01*
X150614653Y-93729546D01*
X150596310Y-93736313D01*
X150519982Y-93761113D01*
X150519976Y-93761115D01*
X150428740Y-93807602D01*
X150344595Y-93850476D01*
X150344592Y-93850477D01*
X150344590Y-93850479D01*
X150344589Y-93850479D01*
X150185357Y-93966169D01*
X150046169Y-94105357D01*
X149930479Y-94264589D01*
X149930479Y-94264590D01*
X149841115Y-94439976D01*
X149841113Y-94439982D01*
X149780290Y-94627177D01*
X149749501Y-94821571D01*
X149749500Y-94821587D01*
X149749500Y-95018412D01*
X149749501Y-95018428D01*
X149780290Y-95212822D01*
X149780291Y-95212826D01*
X149841116Y-95400025D01*
X149930476Y-95575405D01*
X149930479Y-95575409D01*
X149930479Y-95575410D01*
X150046169Y-95734642D01*
X150046172Y-95734646D01*
X150185354Y-95873828D01*
X150185357Y-95873830D01*
X150343261Y-95988556D01*
X150409209Y-96059900D01*
X150442836Y-96151050D01*
X150439021Y-96248130D01*
X150398345Y-96336360D01*
X150343261Y-96391444D01*
X150185357Y-96506169D01*
X150046169Y-96645357D01*
X149930479Y-96804589D01*
X149930479Y-96804590D01*
X149841115Y-96979976D01*
X149841113Y-96979982D01*
X149780290Y-97167177D01*
X149749501Y-97361571D01*
X149749500Y-97361587D01*
X149749500Y-97558412D01*
X149749501Y-97558428D01*
X149780290Y-97752822D01*
X149838790Y-97932869D01*
X149841116Y-97940025D01*
X149930476Y-98115405D01*
X149930479Y-98115409D01*
X149930479Y-98115410D01*
X150046169Y-98274642D01*
X150046172Y-98274646D01*
X150185354Y-98413828D01*
X150206828Y-98429430D01*
X150315741Y-98508561D01*
X150381689Y-98579904D01*
X150415316Y-98671054D01*
X150411501Y-98768135D01*
X150370825Y-98856365D01*
X150345451Y-98886074D01*
X150046171Y-99185353D01*
X150046170Y-99185356D01*
X149930475Y-99344596D01*
X149841114Y-99519978D01*
X149780290Y-99707176D01*
X149749501Y-99901571D01*
X149749500Y-99901587D01*
X149749500Y-100098412D01*
X149749501Y-100098428D01*
X149780290Y-100292823D01*
X149821149Y-100418576D01*
X149841116Y-100480026D01*
X149930476Y-100655405D01*
X150046172Y-100814646D01*
X150185354Y-100953828D01*
X150344595Y-101069524D01*
X150519974Y-101158884D01*
X150707174Y-101219709D01*
X150901583Y-101250500D01*
X150901587Y-101250500D01*
X151098413Y-101250500D01*
X151098417Y-101250500D01*
X151292826Y-101219709D01*
X151480026Y-101158884D01*
X151655405Y-101069524D01*
X151814646Y-100953828D01*
X154339044Y-98429430D01*
X154419826Y-98375454D01*
X154515114Y-98356500D01*
X155738617Y-98356500D01*
X155833905Y-98375454D01*
X155914687Y-98429430D01*
X155968663Y-98510212D01*
X155987617Y-98605500D01*
X155975439Y-98672990D01*
X155976991Y-98673357D01*
X155973409Y-98688514D01*
X155967000Y-98748123D01*
X155967000Y-99124885D01*
X155948046Y-99220173D01*
X155894070Y-99300955D01*
X152518456Y-102676570D01*
X152437674Y-102730546D01*
X152342386Y-102749500D01*
X133621114Y-102749500D01*
X133525826Y-102730546D01*
X133445044Y-102676570D01*
X130475648Y-99707174D01*
X127274646Y-96506172D01*
X127115405Y-96390476D01*
X126940026Y-96301116D01*
X126940023Y-96301115D01*
X126940021Y-96301114D01*
X126752822Y-96240289D01*
X126743310Y-96238006D01*
X126743758Y-96236136D01*
X126665512Y-96207257D01*
X126594178Y-96141298D01*
X126553516Y-96053061D01*
X126549715Y-95955981D01*
X126583355Y-95864836D01*
X126619567Y-95818906D01*
X126703828Y-95734646D01*
X126819524Y-95575405D01*
X126908884Y-95400025D01*
X126969709Y-95212826D01*
X127000500Y-95018417D01*
X127000500Y-94821583D01*
X126969709Y-94627174D01*
X126908884Y-94439975D01*
X126819524Y-94264595D01*
X126703828Y-94105354D01*
X126564646Y-93966172D01*
X126406736Y-93851443D01*
X126340790Y-93780101D01*
X126307163Y-93688951D01*
X126310978Y-93591871D01*
X126351653Y-93503640D01*
X126406736Y-93448556D01*
X126564646Y-93333828D01*
X126703828Y-93194646D01*
X126819524Y-93035405D01*
X126908884Y-92860025D01*
X126969709Y-92672826D01*
X127000500Y-92478417D01*
X127000500Y-92281583D01*
X126969709Y-92087174D01*
X126908884Y-91899975D01*
X126819524Y-91724595D01*
X126703828Y-91565354D01*
X126564646Y-91426172D01*
X126406736Y-91311443D01*
X126340790Y-91240101D01*
X126307163Y-91148951D01*
X126310978Y-91051871D01*
X126351653Y-90963640D01*
X126406736Y-90908556D01*
X126564646Y-90793828D01*
X126703828Y-90654646D01*
X126819524Y-90495405D01*
X126908884Y-90320025D01*
X126969709Y-90132826D01*
X127000500Y-89938417D01*
X127000500Y-89741583D01*
X126969709Y-89547174D01*
X126908884Y-89359975D01*
X126819524Y-89184595D01*
X126703828Y-89025354D01*
X126564646Y-88886172D01*
X126406736Y-88771443D01*
X126340790Y-88700101D01*
X126307163Y-88608951D01*
X126310978Y-88511871D01*
X126351653Y-88423640D01*
X126406736Y-88368556D01*
X126564646Y-88253828D01*
X126703828Y-88114646D01*
X126819524Y-87955405D01*
X126908884Y-87780025D01*
X126969709Y-87592826D01*
X127000500Y-87398417D01*
X127000500Y-87201583D01*
X126969709Y-87007174D01*
X126908884Y-86819975D01*
X126819524Y-86644595D01*
X126703828Y-86485354D01*
X126564646Y-86346172D01*
X126406736Y-86231443D01*
X126340790Y-86160101D01*
X126307163Y-86068951D01*
X126310978Y-85971871D01*
X126351653Y-85883640D01*
X126406736Y-85828556D01*
X126564646Y-85713828D01*
X126703828Y-85574646D01*
X126819524Y-85415405D01*
X126908884Y-85240025D01*
X126969709Y-85052826D01*
X127000500Y-84858417D01*
X127000500Y-84661583D01*
X126969709Y-84467174D01*
X126908884Y-84279975D01*
X126819524Y-84104595D01*
X126703828Y-83945354D01*
X126564646Y-83806172D01*
X126406736Y-83691443D01*
X126340790Y-83620101D01*
X126307163Y-83528951D01*
X126310978Y-83431871D01*
X126351653Y-83343640D01*
X126406736Y-83288556D01*
X126564646Y-83173828D01*
X126703828Y-83034646D01*
X126819524Y-82875405D01*
X126908884Y-82700025D01*
X126969709Y-82512826D01*
X127000500Y-82318417D01*
X127000500Y-82121583D01*
X126969709Y-81927174D01*
X126908884Y-81739975D01*
X126819524Y-81564595D01*
X126703828Y-81405354D01*
X126564646Y-81266172D01*
X126406736Y-81151443D01*
X126340790Y-81080101D01*
X126307163Y-80988951D01*
X126310978Y-80891871D01*
X126351653Y-80803640D01*
X126406736Y-80748556D01*
X126564646Y-80633828D01*
X126703828Y-80494646D01*
X126819524Y-80335405D01*
X126908884Y-80160025D01*
X126969709Y-79972826D01*
X127000500Y-79778417D01*
X127000500Y-79581583D01*
X126969709Y-79387174D01*
X126908884Y-79199975D01*
X126819524Y-79024595D01*
X126703828Y-78865354D01*
X126564646Y-78726172D01*
X126406736Y-78611443D01*
X126340790Y-78540101D01*
X126307163Y-78448951D01*
X126310978Y-78351871D01*
X126351653Y-78263640D01*
X126406736Y-78208556D01*
X126564646Y-78093828D01*
X126703828Y-77954646D01*
X126819524Y-77795405D01*
X126908884Y-77620025D01*
X126969709Y-77432826D01*
X127000500Y-77238417D01*
X127000500Y-77041583D01*
X126969709Y-76847174D01*
X126908884Y-76659975D01*
X126819524Y-76484595D01*
X126703828Y-76325354D01*
X126564646Y-76186172D01*
X126406736Y-76071443D01*
X126340790Y-76000101D01*
X126307163Y-75908951D01*
X126310978Y-75811871D01*
X126351653Y-75723640D01*
X126406736Y-75668556D01*
X126564646Y-75553828D01*
X126703828Y-75414646D01*
X126819524Y-75255405D01*
X126908884Y-75080025D01*
X126969709Y-74892826D01*
X127000500Y-74698417D01*
X127000500Y-74501583D01*
X126969709Y-74307174D01*
X126908884Y-74119975D01*
X126819524Y-73944595D01*
X126703828Y-73785354D01*
X126564646Y-73646172D01*
X126406736Y-73531443D01*
X126340790Y-73460101D01*
X126307163Y-73368951D01*
X126310978Y-73271871D01*
X126351653Y-73183640D01*
X126406736Y-73128556D01*
X126564646Y-73013828D01*
X126703828Y-72874646D01*
X126819524Y-72715405D01*
X126908884Y-72540025D01*
X126969709Y-72352826D01*
X127000500Y-72158417D01*
X127000500Y-71961583D01*
X126969709Y-71767174D01*
X126908884Y-71579975D01*
X126819524Y-71404595D01*
X126703828Y-71245354D01*
X126564646Y-71106172D01*
X126406736Y-70991443D01*
X126340790Y-70920101D01*
X126307163Y-70828951D01*
X126310978Y-70731871D01*
X126351653Y-70643640D01*
X126406736Y-70588556D01*
X126564646Y-70473828D01*
X126703828Y-70334646D01*
X126819524Y-70175405D01*
X126908884Y-70000025D01*
X126969709Y-69812826D01*
X127000500Y-69618417D01*
X127000500Y-69421583D01*
X126969709Y-69227174D01*
X126908884Y-69039975D01*
X126819524Y-68864595D01*
X126703828Y-68705354D01*
X126564646Y-68566172D01*
X126406736Y-68451443D01*
X126340790Y-68380101D01*
X126307163Y-68288951D01*
X126310978Y-68191871D01*
X126351653Y-68103640D01*
X126406736Y-68048556D01*
X126564646Y-67933828D01*
X126703828Y-67794646D01*
X126819524Y-67635405D01*
X126908884Y-67460025D01*
X126969709Y-67272826D01*
X127000500Y-67078417D01*
X127000500Y-66881583D01*
X126969709Y-66687174D01*
X126908884Y-66499975D01*
X126819524Y-66324595D01*
X126703828Y-66165354D01*
X126601097Y-66062623D01*
X126547124Y-65981845D01*
X126528170Y-65886557D01*
X126547124Y-65791269D01*
X126601100Y-65710487D01*
X126681882Y-65656511D01*
X126690136Y-65653263D01*
X126742331Y-65633796D01*
X126857546Y-65547546D01*
X126943796Y-65432331D01*
X126994091Y-65297483D01*
X127000500Y-65237873D01*
X127000499Y-63642128D01*
X126994091Y-63582517D01*
X126943796Y-63447669D01*
X126857546Y-63332454D01*
X126742331Y-63246204D01*
X126645242Y-63209992D01*
X126607481Y-63195908D01*
X126547873Y-63189500D01*
X124952134Y-63189500D01*
X124952130Y-63189500D01*
X124952128Y-63189501D01*
X124939314Y-63190878D01*
X124892519Y-63195908D01*
X124892518Y-63195908D01*
X124854758Y-63209992D01*
X124836512Y-63216797D01*
X124740610Y-63232336D01*
X124646059Y-63209992D01*
X124567256Y-63153166D01*
X124516198Y-63070509D01*
X124500500Y-62983495D01*
X124500500Y-59005432D01*
X124500737Y-58994571D01*
X124504936Y-58898398D01*
X124517148Y-58618689D01*
X124519038Y-58597084D01*
X124567439Y-58229443D01*
X124571211Y-58208056D01*
X124592106Y-58113803D01*
X124651468Y-57846037D01*
X124657080Y-57825093D01*
X124675831Y-57765621D01*
X124722562Y-57680445D01*
X124798332Y-57619634D01*
X124891606Y-57592448D01*
X124988184Y-57603026D01*
X125073362Y-57649757D01*
X125134173Y-57725527D01*
X125143352Y-57745213D01*
X125201953Y-57886689D01*
X125201955Y-57886693D01*
X125333073Y-58113798D01*
X125333082Y-58113812D01*
X125421813Y-58229447D01*
X125492718Y-58321851D01*
X125678149Y-58507282D01*
X125678153Y-58507285D01*
X125678154Y-58507286D01*
X125886187Y-58666917D01*
X125886192Y-58666920D01*
X125886197Y-58666924D01*
X126113303Y-58798043D01*
X126355581Y-58898398D01*
X126608884Y-58966270D01*
X126868880Y-59000500D01*
X127131120Y-59000500D01*
X127391116Y-58966270D01*
X127644419Y-58898398D01*
X127886697Y-58798043D01*
X128113803Y-58666924D01*
X128321851Y-58507282D01*
X128507282Y-58321851D01*
X128666924Y-58113803D01*
X128798043Y-57886697D01*
X128898398Y-57644419D01*
X128966270Y-57391116D01*
X129000500Y-57131120D01*
X129000500Y-56868880D01*
X128966270Y-56608884D01*
X128898398Y-56355581D01*
X128798043Y-56113303D01*
X128666924Y-55886197D01*
X128666920Y-55886192D01*
X128666917Y-55886187D01*
X128507286Y-55678154D01*
X128507285Y-55678153D01*
X128507282Y-55678149D01*
X128321851Y-55492718D01*
X128321846Y-55492714D01*
X128321845Y-55492713D01*
X128113812Y-55333082D01*
X128113798Y-55333073D01*
X128052937Y-55297935D01*
X127886697Y-55201957D01*
X127886695Y-55201956D01*
X127886693Y-55201955D01*
X127886689Y-55201953D01*
X127745213Y-55143352D01*
X127736077Y-55137248D01*
X127725527Y-55134173D01*
X127695955Y-55110439D01*
X127664431Y-55089376D01*
X127658326Y-55080239D01*
X127649757Y-55073362D01*
X127631518Y-55040118D01*
X127610455Y-55008594D01*
X127608311Y-54997818D01*
X127603026Y-54988184D01*
X127598897Y-54950490D01*
X127591501Y-54913306D01*
X127593644Y-54902529D01*
X127592448Y-54891606D01*
X127603059Y-54855200D01*
X127610455Y-54818018D01*
X127616558Y-54808882D01*
X127619634Y-54798332D01*
X127643367Y-54768760D01*
X127664431Y-54737236D01*
X127673567Y-54731131D01*
X127680445Y-54722562D01*
X127713688Y-54704323D01*
X127745213Y-54683260D01*
X127765615Y-54675833D01*
X127825093Y-54657080D01*
X127846037Y-54651468D01*
X128208057Y-54571210D01*
X128229443Y-54567439D01*
X128597084Y-54519038D01*
X128618691Y-54517148D01*
X128994572Y-54500737D01*
X129005433Y-54500500D01*
X129065892Y-54500500D01*
X166934108Y-54500500D01*
X166994567Y-54500500D01*
X167005428Y-54500737D01*
G37*
%TD.AperFunction*%
%TA.AperFunction,NonConductor*%
G36*
X127345128Y-100123333D02*
G01*
X127391096Y-100159570D01*
X132185355Y-104953829D01*
X132185358Y-104953831D01*
X132185360Y-104953833D01*
X132344590Y-105069521D01*
X132344592Y-105069522D01*
X132344595Y-105069524D01*
X132519974Y-105158884D01*
X132707174Y-105219709D01*
X132901583Y-105250500D01*
X132901584Y-105250500D01*
X132901587Y-105250500D01*
X153061913Y-105250500D01*
X153061917Y-105250500D01*
X153256326Y-105219709D01*
X153443526Y-105158884D01*
X153618905Y-105069524D01*
X153778146Y-104953828D01*
X157662544Y-101069428D01*
X157743326Y-101015453D01*
X157838614Y-100996499D01*
X158215366Y-100996499D01*
X158215372Y-100996499D01*
X158274983Y-100990091D01*
X158409831Y-100939796D01*
X158409833Y-100939794D01*
X158413483Y-100938433D01*
X158509387Y-100922892D01*
X158603938Y-100945235D01*
X158682742Y-101002060D01*
X158733800Y-101084716D01*
X158749500Y-101171733D01*
X158749500Y-101598412D01*
X158749501Y-101598428D01*
X158780290Y-101792823D01*
X158780291Y-101792826D01*
X158841116Y-101980026D01*
X158930476Y-102155405D01*
X159046172Y-102314646D01*
X161685354Y-104953828D01*
X161844595Y-105069524D01*
X162019974Y-105158884D01*
X162207174Y-105219709D01*
X162401583Y-105250500D01*
X162401584Y-105250500D01*
X162401587Y-105250500D01*
X167098413Y-105250500D01*
X167098417Y-105250500D01*
X167292826Y-105219709D01*
X167480026Y-105158884D01*
X167655405Y-105069524D01*
X167814646Y-104953828D01*
X171074433Y-101694040D01*
X171155212Y-101640067D01*
X171250500Y-101621113D01*
X171345788Y-101640067D01*
X171426570Y-101694043D01*
X171480546Y-101774825D01*
X171499500Y-101870113D01*
X171499500Y-107994567D01*
X171499263Y-108005428D01*
X171499263Y-108005429D01*
X171482852Y-108381293D01*
X171480959Y-108402933D01*
X171432560Y-108770552D01*
X171428788Y-108791943D01*
X171348536Y-109153941D01*
X171342913Y-109174926D01*
X171324168Y-109234376D01*
X171277437Y-109319554D01*
X171201667Y-109380365D01*
X171108393Y-109407551D01*
X171011815Y-109396973D01*
X170926637Y-109350242D01*
X170865826Y-109274472D01*
X170856647Y-109254785D01*
X170798049Y-109113315D01*
X170798044Y-109113306D01*
X170798043Y-109113303D01*
X170666924Y-108886197D01*
X170666920Y-108886192D01*
X170666917Y-108886187D01*
X170507286Y-108678154D01*
X170507285Y-108678153D01*
X170507282Y-108678149D01*
X170321851Y-108492718D01*
X170321846Y-108492714D01*
X170321845Y-108492713D01*
X170113812Y-108333082D01*
X170113798Y-108333073D01*
X169930942Y-108227502D01*
X169886697Y-108201957D01*
X169886695Y-108201956D01*
X169886693Y-108201955D01*
X169886689Y-108201953D01*
X169644417Y-108101601D01*
X169534730Y-108072211D01*
X169391116Y-108033730D01*
X169391111Y-108033729D01*
X169391114Y-108033729D01*
X169131120Y-107999500D01*
X168868880Y-107999500D01*
X168608887Y-108033729D01*
X168355582Y-108101601D01*
X168113310Y-108201953D01*
X168113306Y-108201955D01*
X167886201Y-108333073D01*
X167886187Y-108333082D01*
X167678154Y-108492713D01*
X167492713Y-108678154D01*
X167333082Y-108886187D01*
X167333073Y-108886201D01*
X167201955Y-109113306D01*
X167201953Y-109113310D01*
X167101601Y-109355582D01*
X167033729Y-109608887D01*
X166999500Y-109868880D01*
X166999500Y-110131119D01*
X167033729Y-110391112D01*
X167101601Y-110644417D01*
X167201953Y-110886689D01*
X167201955Y-110886693D01*
X167333073Y-111113798D01*
X167333082Y-111113812D01*
X167492713Y-111321845D01*
X167492718Y-111321851D01*
X167678149Y-111507282D01*
X167678153Y-111507285D01*
X167678154Y-111507286D01*
X167886187Y-111666917D01*
X167886192Y-111666920D01*
X167886197Y-111666924D01*
X168113303Y-111798043D01*
X168113307Y-111798044D01*
X168113315Y-111798049D01*
X168254785Y-111856647D01*
X168263919Y-111862750D01*
X168274472Y-111865826D01*
X168304048Y-111889563D01*
X168335567Y-111910623D01*
X168341671Y-111919758D01*
X168350242Y-111926637D01*
X168368480Y-111959880D01*
X168389544Y-111991404D01*
X168391687Y-112002181D01*
X168396973Y-112011815D01*
X168401101Y-112049505D01*
X168408498Y-112086692D01*
X168406354Y-112097468D01*
X168407551Y-112108393D01*
X168396939Y-112144801D01*
X168389544Y-112181980D01*
X168383440Y-112191114D01*
X168380365Y-112201667D01*
X168356627Y-112231243D01*
X168335568Y-112262762D01*
X168326432Y-112268866D01*
X168319554Y-112277437D01*
X168286310Y-112295675D01*
X168254787Y-112316739D01*
X168234376Y-112324168D01*
X168174926Y-112342913D01*
X168153941Y-112348536D01*
X167791943Y-112428788D01*
X167770552Y-112432560D01*
X167402933Y-112480959D01*
X167381293Y-112482852D01*
X167042023Y-112497665D01*
X167005427Y-112499263D01*
X166994567Y-112499500D01*
X129005433Y-112499500D01*
X128994572Y-112499263D01*
X128618707Y-112482852D01*
X128597066Y-112480959D01*
X128229447Y-112432560D01*
X128208056Y-112428788D01*
X127846058Y-112348536D01*
X127825073Y-112342913D01*
X127765623Y-112324168D01*
X127680445Y-112277437D01*
X127619634Y-112201667D01*
X127592448Y-112108393D01*
X127603026Y-112011815D01*
X127649757Y-111926637D01*
X127725527Y-111865826D01*
X127745189Y-111856657D01*
X127886697Y-111798043D01*
X128113803Y-111666924D01*
X128321851Y-111507282D01*
X128507282Y-111321851D01*
X128666924Y-111113803D01*
X128798043Y-110886697D01*
X128898398Y-110644419D01*
X128966270Y-110391116D01*
X129000500Y-110131120D01*
X129000500Y-109868880D01*
X128966270Y-109608884D01*
X128898398Y-109355581D01*
X128798043Y-109113303D01*
X128666924Y-108886197D01*
X128666920Y-108886192D01*
X128666917Y-108886187D01*
X128507286Y-108678154D01*
X128507285Y-108678153D01*
X128507282Y-108678149D01*
X128321851Y-108492718D01*
X128321846Y-108492714D01*
X128321845Y-108492713D01*
X128113812Y-108333082D01*
X128113798Y-108333073D01*
X127930942Y-108227502D01*
X127886697Y-108201957D01*
X127886695Y-108201956D01*
X127886693Y-108201955D01*
X127886689Y-108201953D01*
X127644417Y-108101601D01*
X127534730Y-108072211D01*
X127391116Y-108033730D01*
X127391111Y-108033729D01*
X127391114Y-108033729D01*
X127131120Y-107999500D01*
X126868880Y-107999500D01*
X126608887Y-108033729D01*
X126355582Y-108101601D01*
X126113310Y-108201953D01*
X126113306Y-108201955D01*
X125886201Y-108333073D01*
X125886187Y-108333082D01*
X125678154Y-108492713D01*
X125492713Y-108678154D01*
X125333082Y-108886187D01*
X125333073Y-108886201D01*
X125201955Y-109113306D01*
X125143352Y-109254787D01*
X125137247Y-109263922D01*
X125134173Y-109274472D01*
X125110437Y-109304046D01*
X125089375Y-109335568D01*
X125080240Y-109341671D01*
X125073362Y-109350242D01*
X125040116Y-109368481D01*
X125008594Y-109389544D01*
X124997818Y-109391687D01*
X124988184Y-109396973D01*
X124950489Y-109401101D01*
X124913305Y-109408498D01*
X124902529Y-109406354D01*
X124891606Y-109407551D01*
X124855202Y-109396940D01*
X124818017Y-109389544D01*
X124808881Y-109383439D01*
X124798332Y-109380365D01*
X124768757Y-109356629D01*
X124737236Y-109335567D01*
X124731132Y-109326432D01*
X124722562Y-109319554D01*
X124704322Y-109286308D01*
X124683260Y-109254786D01*
X124675831Y-109234376D01*
X124657082Y-109174912D01*
X124651467Y-109153956D01*
X124571211Y-108791943D01*
X124567439Y-108770552D01*
X124555643Y-108680953D01*
X124519038Y-108402917D01*
X124517148Y-108381306D01*
X124500737Y-108005428D01*
X124500500Y-107994567D01*
X124500500Y-101120113D01*
X124519454Y-101024825D01*
X124573430Y-100944043D01*
X124654212Y-100890067D01*
X124749500Y-100871113D01*
X124844788Y-100890067D01*
X124925566Y-100944040D01*
X124935354Y-100953828D01*
X125094595Y-101069524D01*
X125269975Y-101158884D01*
X125457174Y-101219709D01*
X125651583Y-101250500D01*
X125651587Y-101250500D01*
X125848413Y-101250500D01*
X125848417Y-101250500D01*
X126042826Y-101219709D01*
X126230025Y-101158884D01*
X126405405Y-101069524D01*
X126564646Y-100953828D01*
X126703828Y-100814646D01*
X126819524Y-100655405D01*
X126908884Y-100480025D01*
X126969709Y-100292826D01*
X126969709Y-100292824D01*
X126969710Y-100292822D01*
X126971994Y-100283310D01*
X126973868Y-100283760D01*
X127002720Y-100205547D01*
X127068667Y-100134203D01*
X127156897Y-100093525D01*
X127253977Y-100089709D01*
X127345128Y-100123333D01*
G37*
%TD.AperFunction*%
M02*
